<?xml version="1.0" encoding="utf-8"?>
<!-- Generator: Adobe Illustrator 28.0.0, SVG Export Plug-In . SVG Version: 6.00 Build 0)  -->
<svg version="1.1" id="Слой_1" xmlns="http://www.w3.org/2000/svg" xmlns:xlink="http://www.w3.org/1999/xlink" x="0px" y="0px"
	 viewBox="0 0 1000 1000" style="enable-background:new 0 0 1000 1000;" xml:space="preserve">
<style type="text/css">
	.st0{fill:#100943;}
	.st1{fill:#ED143B;}
	.st2{fill:#FFFFFF;}
</style>
<g>
	<path class="st0" d="M243.2,1000h513.5c134.3,0,243.2-108.9,243.2-243.2V243.2C1000,109.2,891.5,0.4,757.5,0H242.5
		C108.5,0.4,0,109.2,0,243.2v513.5C0,891.1,108.9,1000,243.2,1000z"/>
	<path class="st1" d="M757.5,0H500c0,276.1,223.9,500,500,500c0,0,0,0,0,0V243.2C1000,109.2,891.5,0.4,757.5,0z"/>
	<path class="st2" d="M617.7,477.2H322.3V360.3h295.4c17.3,0,29.3,3,35.3,8.3c6,5.3,9.8,15,9.8,29.2v42c0,15-3.7,24.7-9.8,30
		C647,475,635,477.2,617.7,477.2L617.7,477.2z M638,250H197v500h125.3V587.3h230.9L662.7,750H803L682.2,586.6
		c44.5-6.6,64.5-20.3,81-42.7c16.5-22.5,24.8-58.5,24.8-106.4v-37.5c0-28.5-3-51-8.3-68.2c-5.3-17.2-14.2-32.2-27-45.7
		c-13.5-12.8-28.5-21.7-46.5-27.7C688.2,253,665.7,250,638,250L638,250z"/>
</g>
</svg>
